# xmcd CD database file generated by OrangeCD 6.5
#
# Track frame offsets:
#	150
#	12805
#	29194
#	58724
#	68468
#	80458
#	97483
#	124656
#	136655
#	150574
#	164397
#	184503
#	199128
#	248443
#	260166
#	276469
#
# Disc length: 4272 seconds
#
# Revision: 1
# Processed by: cddbd v1.5.2PL0 Copyright (c) Steve Scherf et al.
# Submitted via: OrangeCD 6.5
#
DISCID=df10ae10
DTITLE=Taste - I'll Remember
DYEAR=2015
DGENRE=Blues
TTITLE0=What's Going On
TTITLE1=Railway And Gun
TTITLE2=It's Happened Before, It Will Happen Again
TTITLE3=If The Day Was Any Longer
TTITLE4=Morning Sun
TTITLE5=Eat My Words
TTITLE6=On The Boards
TTITLE7=If I Don't Sing I'll Cry
TTITLE8=See Here
TTITLE9=I'll Remember
TTITLE10=Railway And Gun
TTITLE11=See Here
TTITLE12=It's Happened Before, It Will Happen Again
TTITLE13=If The Day Was Any Longer
TTITLE14=Morning Sun
TTITLE15=It's Happened Before, It Will Happen Again
EXTD=
EXTT0=
EXTT1=
EXTT2=
EXTT3=
EXTT4=
EXTT5=
EXTT6=
EXTT7=
EXTT8=
EXTT9=
EXTT10=
EXTT11=
EXTT12=
EXTT13=
EXTT14=
EXTT15=
PLAYORDER=
